# xmcd
#
# Track frame offsets:
# 150
# 18968
# 33006
# 59807
# 80161
# 104702
# 122895
# 141734
# 159136
# 174879
# 192682
# 213825
# 232333
# 252767
# 267293
# 287292
# 307710
# 321264
#
# Disc length: 4495 seconds
#
#
# Revision: 0
# Processed by: cddbd v1.5.2PL0 Copyright (c) Steve Scherf et al.
# Submitted via: FreeRIP 2.945 
#
DISCID=05118d12
DTITLE=Isa and Gerhard Lesser - The Scent of Roses
DYEAR=2006
DGENRE=Ballad
TTITLE0=Good-bye to dreams
TTITLE1=Se lene Ko
TTITLE2=The land called nowhere
TTITLE3=You make my love go on
TTITLE4=Magic of love
TTITLE5=The scent of roses
TTITLE6=The only truth
TTITLE7=It's all up to you
TTITLE8=Somehow yet too late
TTITLE9=Pink balloon
TTITLE10=Ena fili
TTITLE11=I'll leave behind a tear
TTITLE12=I am missing you
TTITLE13=Had a life
TTITLE14=Kiss me before I start to weep
TTITLE15=Endless
TTITLE16=Since you went away
TTITLE17=Brilliant stars
EXTD=
EXTT0=
EXTT1=
EXTT2=
EXTT3=
EXTT4=
EXTT5=
EXTT6=
EXTT7=
EXTT8=
EXTT9=
EXTT10=
EXTT11=
EXTT12=
EXTT13=
EXTT14=
EXTT15=
EXTT16=
EXTT17=
PLAYORDER=
